<svg width="1390" height="779" viewBox="0 0 1390 779" fill="none" xmlns="http://www.w3.org/2000/svg">
<mask id="mask0_0_122" style="mask-type:alpha" maskUnits="userSpaceOnUse" x="0" y="0" width="1390" height="779">
<rect x="0.833374" y="0.833679" width="1388.33" height="777.5" rx="51.6667" fill="#EDF4FF"/>
</mask>
<g mask="url(#mask0_0_122)">
<path fill-rule="evenodd" clip-rule="evenodd" d="M1329.17 452.813C1276.93 452.813 1234.58 410.327 1234.58 357.917C1234.58 305.508 1276.93 263.021 1329.17 263.021L1707.5 263.021C1759.74 263.021 1802.08 305.508 1802.08 357.917C1802.08 410.327 1759.74 452.813 1707.5 452.813L1329.17 452.813ZM1329.17 282L1707.5 282C1749.29 282 1783.17 315.989 1783.17 357.917C1783.17 399.845 1749.29 433.834 1707.5 433.834L1329.17 433.834C1287.38 433.834 1253.5 399.845 1253.5 357.917C1253.5 315.989 1287.38 282 1329.17 282Z" fill="url(#paint0_radial_0_122)" fill-opacity="0.2"/>
<path fill-rule="evenodd" clip-rule="evenodd" d="M1177.83 357.917C1177.83 441.772 1245.59 509.75 1329.17 509.75L1707.5 509.75C1791.08 509.75 1858.83 441.772 1858.83 357.917C1858.83 274.062 1791.08 206.084 1707.5 206.084H1329.17C1245.59 206.084 1177.83 274.062 1177.83 357.917ZM1707.5 225.063H1329.17C1256.04 225.063 1196.75 284.544 1196.75 357.917C1196.75 431.29 1256.04 490.771 1329.17 490.771L1707.5 490.771C1780.63 490.771 1839.92 431.29 1839.92 357.917C1839.92 284.544 1780.63 225.063 1707.5 225.063Z" fill="url(#paint1_radial_0_122)" fill-opacity="0.2"/>
<path fill-rule="evenodd" clip-rule="evenodd" d="M1329.17 566.688C1214.25 566.688 1121.08 473.218 1121.08 357.917C1121.08 242.616 1214.25 149.146 1329.17 149.146H1707.5C1822.42 149.146 1915.58 242.616 1915.58 357.917C1915.58 473.218 1822.42 566.688 1707.5 566.688H1329.17ZM1329.17 168.125H1707.5C1811.97 168.125 1896.67 253.098 1896.67 357.917C1896.67 462.736 1811.97 547.709 1707.5 547.709H1329.17C1224.69 547.709 1140 462.736 1140 357.917C1140 253.098 1224.69 168.125 1329.17 168.125Z" fill="url(#paint2_radial_0_122)" fill-opacity="0.2"/>
<path fill-rule="evenodd" clip-rule="evenodd" d="M1064.33 357.917C1064.33 504.664 1182.9 623.625 1329.17 623.625H1707.5C1853.76 623.625 1972.33 504.664 1972.33 357.917C1972.33 211.17 1853.76 92.2087 1707.5 92.2087H1329.17C1182.9 92.2087 1064.33 211.17 1064.33 357.917ZM1707.5 111.188H1329.17C1193.35 111.188 1083.25 221.652 1083.25 357.917C1083.25 494.182 1193.35 604.646 1329.17 604.646H1707.5C1843.32 604.646 1953.42 494.182 1953.42 357.917C1953.42 221.652 1843.32 111.188 1707.5 111.188Z" fill="url(#paint3_radial_0_122)" fill-opacity="0.2"/>
<path fill-rule="evenodd" clip-rule="evenodd" d="M1329.17 680.563C1151.56 680.563 1007.58 536.109 1007.58 357.917C1007.58 179.725 1151.56 35.2712 1329.17 35.2712H1707.5C1885.11 35.2712 2029.08 179.725 2029.08 357.917C2029.08 536.109 1885.11 680.563 1707.5 680.563H1329.17ZM1329.17 54.2503H1707.5C1874.66 54.2503 2010.17 190.207 2010.17 357.917C2010.17 525.627 1874.66 661.584 1707.5 661.584H1329.17C1162.01 661.584 1026.5 525.627 1026.5 357.917C1026.5 190.207 1162.01 54.2503 1329.17 54.2503Z" fill="url(#paint4_radial_0_122)" fill-opacity="0.2"/>
<path fill-rule="evenodd" clip-rule="evenodd" d="M1329.17 737.5C1120.22 737.5 950.833 567.555 950.833 357.917C950.833 148.279 1120.22 -21.6663 1329.17 -21.6663H1707.5C1916.45 -21.6663 2085.83 148.279 2085.83 357.917C2085.83 567.555 1916.45 737.5 1707.5 737.5H1329.17ZM1329.17 -2.68713H1707.5C1906 -2.68713 2066.92 158.761 2066.92 357.917C2066.92 557.073 1906 718.521 1707.5 718.521H1329.17C1130.67 718.521 969.75 557.073 969.75 357.917C969.75 158.761 1130.67 -2.68713 1329.17 -2.68713Z" fill="url(#paint5_radial_0_122)" fill-opacity="0.2"/>
</g>
<defs>
<radialGradient id="paint0_radial_0_122" cx="0" cy="0" r="1" gradientUnits="userSpaceOnUse" gradientTransform="translate(1518.33 357.917) rotate(-11.3463) scale(771.75 516.068)">
<stop stop-color="#0552E9"/>
<stop offset="1" stop-color="white" stop-opacity="0"/>
</radialGradient>
<radialGradient id="paint1_radial_0_122" cx="0" cy="0" r="1" gradientUnits="userSpaceOnUse" gradientTransform="translate(1518.33 357.917) rotate(-11.3463) scale(771.75 516.068)">
<stop stop-color="#0552E9"/>
<stop offset="1" stop-color="white" stop-opacity="0"/>
</radialGradient>
<radialGradient id="paint2_radial_0_122" cx="0" cy="0" r="1" gradientUnits="userSpaceOnUse" gradientTransform="translate(1518.33 357.917) rotate(-11.3463) scale(771.75 516.068)">
<stop stop-color="#0552E9"/>
<stop offset="1" stop-color="white" stop-opacity="0"/>
</radialGradient>
<radialGradient id="paint3_radial_0_122" cx="0" cy="0" r="1" gradientUnits="userSpaceOnUse" gradientTransform="translate(1518.33 357.917) rotate(-11.3463) scale(771.75 516.068)">
<stop stop-color="#0552E9"/>
<stop offset="1" stop-color="white" stop-opacity="0"/>
</radialGradient>
<radialGradient id="paint4_radial_0_122" cx="0" cy="0" r="1" gradientUnits="userSpaceOnUse" gradientTransform="translate(1518.33 357.917) rotate(-11.3463) scale(771.75 516.068)">
<stop stop-color="#0552E9"/>
<stop offset="1" stop-color="white" stop-opacity="0"/>
</radialGradient>
<radialGradient id="paint5_radial_0_122" cx="0" cy="0" r="1" gradientUnits="userSpaceOnUse" gradientTransform="translate(1518.33 357.917) rotate(-11.3463) scale(771.75 516.068)">
<stop stop-color="#0552E9"/>
<stop offset="1" stop-color="white" stop-opacity="0"/>
</radialGradient>
</defs>
</svg>
